<svg width="45" height="40" viewBox="0 0 45 40" fill="none" xmlns="http://www.w3.org/2000/svg">
<path d="M16.0284 10.381C12.4164 16.5494 8.95485 22.7179 5.34281 28.8863C5.19231 28.7358 5.04181 28.5854 5.04181 28.4349C3.38629 25.7268 1.88127 23.0188 0.225753 20.1602C-0.0752509 19.7089 -0.0752509 19.2575 0.225753 18.8062C1.73077 16.2485 3.23579 13.6909 4.5903 11.1332C4.89131 10.5314 5.34281 10.381 6.09532 10.381C9.10535 10.381 12.1154 10.381 15.1254 10.381C15.4264 10.381 15.5769 10.381 16.0284 10.381Z" fill="#DEEBFF"/>
<path d="M39.6571 10.2306C39.8076 10.5315 39.9581 10.6819 40.1086 10.8324C41.6136 13.5405 43.1186 16.0981 44.7741 18.8062C45.0751 19.408 45.0751 19.8594 44.7741 20.3107C43.2691 22.8684 41.7641 25.426 40.4096 27.9837C40.1086 28.435 39.8076 28.7359 39.3561 28.7359C36.1955 28.7359 32.8845 28.7359 29.724 28.7359C29.5735 28.7359 29.5735 28.7359 29.2725 28.7359C32.433 22.5675 36.045 16.399 39.6571 10.2306Z" fill="#DEEBFF"/>
<path d="M17.8345 29.7891C24.9081 29.7891 31.9816 29.7891 39.0552 29.7891C38.6037 30.6918 38.1522 31.444 37.5502 32.3467C36.3462 34.3026 35.1422 36.4088 34.0887 38.3647C33.7877 38.816 33.4867 38.9665 33.0351 38.9665C30.0251 38.9665 26.8646 38.9665 23.8545 38.9665C23.403 38.9665 22.9515 38.816 22.801 38.3647C21.296 35.6566 19.6405 32.9485 18.1355 30.2404C17.985 30.2404 17.985 30.09 17.8345 29.7891Z" fill="#DEEBFF"/>
<path d="M22.9517 0C23.2527 0 23.4032 0 23.7042 0C26.7142 0 29.7242 0 32.7343 0C33.3363 0 33.7878 0.300899 34.0888 0.752249C35.5938 3.30989 36.9483 5.86754 38.4533 8.42518C38.7543 8.87653 38.7543 9.32788 38.4533 9.77923C36.7978 12.6378 35.1423 15.4963 33.6373 18.2044C33.6373 18.2044 33.6373 18.2044 33.4868 18.3549C30.0252 12.3369 26.5637 6.16844 22.9517 0Z" fill="#DEEBFF"/>
<path d="M5.94482 9.17743C6.09533 8.87653 6.09532 8.72608 6.24583 8.57563C7.75084 6.01799 9.25586 3.30989 10.7609 0.752249C11.0619 0.15045 11.5134 0 12.1154 0C14.9749 0 17.985 0 20.8445 0C21.4465 0 21.898 0.15045 22.199 0.752249C23.8545 3.61079 25.51 6.31889 27.1656 9.32788C20.092 9.17743 13.0184 9.17743 5.94482 9.17743Z" fill="#DEEBFF"/>
<path d="M21.898 39.1169C21.4464 39.1169 21.1454 39.1169 20.6939 39.1169C17.6839 39.1169 14.8244 39.1169 11.8143 39.1169C11.3628 39.1169 10.9113 38.9664 10.7608 38.5151C9.25581 35.9574 7.75079 33.3998 6.24577 30.6917C5.94477 30.2404 5.94477 29.789 6.24577 29.1872C7.75079 26.4791 9.25581 23.771 10.9113 21.0629C11.0618 20.9125 11.0618 20.762 11.2123 20.4611C14.8244 26.78 18.2859 32.798 21.898 39.1169Z" fill="#DEEBFF"/>
</svg>
