<svg width="20" height="21" viewBox="0 0 20 21" fill="none" xmlns="http://www.w3.org/2000/svg">
<path d="M19.6096 10.1195C19.5807 10.0562 18.8963 8.53672 17.3846 7.025C15.3619 5.00547 12.8127 3.9375 10.0002 3.9375C7.18769 3.9375 4.63847 5.00547 2.61815 7.025C1.10643 8.53672 0.42206 10.0562 0.39081 10.1195C0.337882 10.2395 0.310547 10.3692 0.310547 10.5004C0.310547 10.6315 0.337882 10.7613 0.39081 10.8813C0.419716 10.9453 1.10409 12.4641 2.61659 13.9758C4.63847 15.9953 7.18769 17.0625 10.0002 17.0625C12.8127 17.0625 15.3619 15.9953 17.3814 13.9758C18.8939 12.4641 19.5783 10.9453 19.6072 10.8813C19.6605 10.7614 19.6882 10.6318 19.6887 10.5006C19.6891 10.3695 19.6621 10.2397 19.6096 10.1195ZM16.0111 12.6977C14.3338 14.3492 12.3119 15.1875 10.0002 15.1875C7.68847 15.1875 5.66659 14.3492 3.99159 12.6969C3.33249 12.0447 2.76553 11.3056 2.30643 10.5C2.76566 9.69474 3.33261 8.95589 3.99159 8.30391C5.66737 6.65078 7.68847 5.8125 10.0002 5.8125C12.3119 5.8125 14.333 6.65078 16.0088 8.30391C16.6678 8.95583 17.2348 9.69469 17.6939 10.5C17.2348 11.3055 16.6678 12.0447 16.0088 12.6969L16.0111 12.6977ZM10.0002 7.0625C9.32031 7.0625 8.65571 7.26411 8.09041 7.64182C7.52512 8.01954 7.08453 8.5564 6.82435 9.18453C6.56417 9.81265 6.4961 10.5038 6.62874 11.1706C6.76137 11.8374 7.08876 12.4499 7.56951 12.9307C8.05025 13.4114 8.66275 13.7388 9.32956 13.8714C9.99637 14.0041 10.6875 13.936 11.3157 13.6758C11.9438 13.4157 12.4806 12.9751 12.8584 12.4098C13.2361 11.8445 13.4377 11.1799 13.4377 10.5C13.4367 9.58864 13.0742 8.71489 12.4297 8.07046C11.7853 7.42603 10.9115 7.06353 10.0002 7.0625ZM10.0002 12.0625C9.69115 12.0625 9.38906 11.9709 9.13211 11.7992C8.87515 11.6275 8.67488 11.3835 8.55662 11.0979C8.43836 10.8124 8.40742 10.4983 8.46771 10.1952C8.528 9.89208 8.67681 9.61367 8.89533 9.39515C9.11385 9.17663 9.39226 9.02781 9.69536 8.96752C9.99845 8.90723 10.3126 8.93818 10.5981 9.05644C10.8836 9.1747 11.1277 9.37497 11.2994 9.63192C11.471 9.88887 11.5627 10.191 11.5627 10.5C11.5627 10.9144 11.3981 11.3118 11.105 11.6049C10.812 11.8979 10.4146 12.0625 10.0002 12.0625Z" fill="#666484"/>
</svg>
