<svg width="142" height="124" viewBox="0 0 142 124" fill="none" xmlns="http://www.w3.org/2000/svg">
<path d="M50.6264 33.1079C39.2552 52.5271 28.3577 71.9463 16.9865 91.3654C16.5127 90.8918 16.0389 90.4182 16.0389 89.9445C10.8271 81.419 6.08903 72.8935 0.877207 63.8944C-0.0703972 62.4735 -0.0703972 61.0526 0.877207 59.6317C5.61523 51.5798 10.3533 43.528 14.6175 35.4761C15.5651 33.5815 16.9865 33.1079 19.3555 33.1079C28.8315 33.1079 38.3076 33.1079 47.7836 33.1079C48.7312 33.1079 49.205 33.1079 50.6264 33.1079Z" fill="white"/>
<path d="M125.013 32.6344C125.487 33.5816 125.961 34.0553 126.435 34.5289C131.173 43.0544 135.911 51.1063 141.122 59.6317C142.07 61.5263 142.07 62.9472 141.122 64.3681C136.384 72.42 131.646 80.4718 127.382 88.5237C126.435 89.9446 125.487 90.8919 124.066 90.8919C114.116 90.8919 103.692 90.8919 93.7422 90.8919C93.2684 90.8919 93.2684 90.8919 92.3208 90.8919C102.271 71.4727 113.642 52.0535 125.013 32.6344Z" fill="white"/>
<path d="M56.312 94.2074C78.5807 94.2074 100.849 94.2074 123.118 94.2074C121.697 97.0492 120.275 99.4174 118.38 102.259C114.59 108.417 110.799 115.047 107.483 121.205C106.535 122.626 105.587 123.099 104.166 123.099C94.69 123.099 84.7401 123.099 75.2641 123.099C73.8427 123.099 72.4213 122.626 71.9475 121.205C67.2095 112.679 61.9976 104.154 57.2596 95.6283C56.7858 95.6283 56.7858 95.1547 56.312 94.2074Z" fill="white"/>
<path d="M72.4214 0.427002C73.369 0.427002 73.8428 0.427002 74.7904 0.427002C84.2664 0.427002 93.7425 0.427002 103.219 0.427002C105.114 0.427002 106.535 1.37428 107.483 2.79519C112.221 10.847 116.485 18.8989 121.223 26.9508C122.171 28.3717 122.171 29.7926 121.223 31.2135C116.011 40.2126 110.799 49.2118 106.061 57.7373C106.061 57.7373 106.061 57.7373 105.588 58.2109C94.6901 39.2654 83.7926 19.8462 72.4214 0.427002Z" fill="white"/>
<path d="M18.8818 29.3189C19.3556 28.3717 19.3556 27.898 19.8294 27.4244C24.5675 19.3725 29.3055 10.847 34.0435 2.79519C34.9911 0.90064 36.4125 0.427002 38.3077 0.427002C47.31 0.427002 56.786 0.427002 65.7882 0.427002C67.6835 0.427002 69.1049 0.90064 70.0525 2.79519C75.2643 11.7943 80.4761 20.3198 85.6879 29.7926C63.4192 29.3189 41.1505 29.3189 18.8818 29.3189Z" fill="white"/>
<path d="M69.1043 123.573C67.6829 123.573 66.7353 123.573 65.3139 123.573C55.8378 123.573 46.8356 123.573 37.3596 123.573C35.9382 123.573 34.5167 123.099 34.0429 121.678C29.3049 113.627 24.5669 105.575 19.8289 97.0493C18.8813 95.6284 18.8813 94.2074 19.8289 92.3129C24.5669 83.7874 29.3049 75.2619 34.5167 66.7364C34.9905 66.2628 34.9905 65.7891 35.4643 64.8419C46.8356 84.7347 57.7331 103.68 69.1043 123.573Z" fill="white"/>
</svg>
