<svg width="1004" height="118" viewBox="0 0 1004 118" fill="none" xmlns="http://www.w3.org/2000/svg">
<path d="M48.232 31.7596C37.4498 50.1729 27.1168 68.5862 16.3345 86.9995C15.8852 86.5504 15.436 86.1013 15.436 85.6522C10.4941 77.5683 6.0015 69.4844 1.05963 60.9514C0.161112 59.6041 0.161112 58.2568 1.05963 56.9095C5.55224 49.2747 10.0448 41.6399 14.0882 34.0051C14.9867 32.2087 16.3345 31.7596 18.5808 31.7596C27.566 31.7596 36.5512 31.7596 45.5364 31.7596C46.435 31.7596 46.8842 31.7596 48.232 31.7596Z" fill="white"/>
<path d="M118.766 31.3105C119.215 32.2087 119.664 32.6578 120.113 33.1069C124.606 41.1908 129.099 48.8256 134.04 56.9095C134.939 58.7059 134.939 60.0533 134.04 61.4006C129.548 69.0354 125.055 76.6702 121.012 84.305C120.113 85.6523 119.215 86.5505 117.867 86.5505C108.433 86.5505 98.5489 86.5505 89.1144 86.5505C88.6651 86.5505 88.6651 86.5505 87.7666 86.5505C97.2011 68.1372 107.983 49.7238 118.766 31.3105Z" fill="white"/>
<path d="M53.623 89.6943C74.7383 89.6943 95.8536 89.6943 116.969 89.6943C115.621 92.3889 114.273 94.6345 112.476 97.3291C108.882 103.167 105.288 109.455 102.143 115.293C101.245 116.641 100.346 117.09 98.9984 117.09C90.0132 117.09 80.5787 117.09 71.5935 117.09C70.2457 117.09 68.8979 116.641 68.4487 115.293C63.956 107.209 59.0142 99.1255 54.5216 91.0416C54.0723 91.0416 54.0723 90.5925 53.623 89.6943Z" fill="white"/>
<path d="M68.8979 0.771271C69.7965 0.771271 70.2457 0.771271 71.1443 0.771271C80.1295 0.771271 89.1147 0.771271 98.0999 0.771271C99.8969 0.771271 101.245 1.66948 102.143 3.0168C106.636 10.6516 110.679 18.2864 115.172 25.9212C116.07 27.2685 116.07 28.6158 115.172 29.9631C110.23 38.4961 105.288 47.0291 100.795 55.113C100.795 55.113 100.795 55.113 100.346 55.5621C90.0132 37.5979 79.6802 19.1846 68.8979 0.771271Z" fill="white"/>
<path d="M18.1313 28.1667C18.5806 27.2685 18.5806 26.8194 19.0299 26.3703C23.5225 18.7355 28.0151 10.6516 32.5077 3.0168C33.4062 1.22038 34.754 0.771271 36.551 0.771271C45.087 0.771271 54.0722 0.771271 62.6082 0.771271C64.4052 0.771271 65.753 1.22038 66.6515 3.0168C71.5934 11.5498 76.5352 19.6337 81.4771 28.6158C60.3618 28.1667 39.2466 28.1667 18.1313 28.1667Z" fill="white"/>
<path d="M65.753 117.539C64.4052 117.539 63.5067 117.539 62.1589 117.539C53.1737 117.539 44.6377 117.539 35.6525 117.539C34.3047 117.539 32.9569 117.09 32.5077 115.743C28.0151 108.108 23.5225 100.473 19.0298 92.3891C18.1313 91.0418 18.1313 89.6945 19.0298 87.898C23.5225 79.8141 28.0151 71.7302 32.9569 63.6463C33.4062 63.1972 33.4062 62.7481 33.8555 61.8499C44.6377 80.7123 54.9707 98.6766 65.753 117.539Z" fill="white"/>
<path d="M229.774 14.1715C222.927 14.1715 216.577 15.3036 210.726 17.5686C204.999 19.8335 200.02 22.9793 195.787 27.0059C191.678 30.7808 188.441 35.5621 186.076 41.3504C184.084 46.2579 182.963 51.6055 182.714 57.3936V63.056H199.148V57.3936C199.397 53.1152 200.082 49.6551 201.202 47.0126C202.696 43.3636 204.75 40.0922 207.364 37.1982C210.477 34.3041 213.714 32.1651 217.075 30.781C220.935 29.271 225.168 28.5161 229.774 28.5161H253.304V14.1715H229.774ZM236.871 56.6386L236.871 60.2245H237.058C236.809 64.2509 236.062 67.963 234.817 71.3605C233.199 75.2612 231.144 78.4698 228.655 80.9865C225.915 83.7549 222.679 85.8939 218.944 87.4039C215.084 88.9138 210.851 89.6688 206.245 89.6688H182.715V104.013H206.245C213.092 104.013 219.442 102.881 225.293 100.616C231.02 98.3509 236 95.2051 240.233 91.1785C244.59 86.7745 247.827 81.9932 249.943 76.8342C252.184 71.8009 253.305 66.2646 253.305 60.2248V56.6386H236.871ZM345.743 31.9141C344.124 28.3907 341.883 25.2449 339.02 22.4768C336.032 19.8342 332.484 17.7582 328.375 16.2483C323.894 14.8642 319.163 14.1721 314.183 14.1721H279.263V28.3279H312.878C318.48 28.3279 323.149 29.712 326.884 32.4804C330.37 35.1229 332.112 39.1493 332.112 44.56C332.112 49.4675 330.432 53.431 327.07 56.4509C323.46 59.345 318.729 60.7921 312.878 60.7921H279.263V104.015H294.763V75.1378H312.317C316.923 75.1378 321.592 74.4457 326.323 73.0616C330.68 71.6776 334.415 69.7272 337.527 67.2108C340.764 64.6943 343.316 61.4855 345.184 57.5848C347.051 53.8099 347.985 49.4059 347.985 44.3726C347.985 39.5912 347.237 35.4374 345.743 31.9141ZM431.084 13.9831V65.3214C431.084 73.6261 429.092 79.7918 425.108 83.8184C422.992 86.2092 420.066 87.9709 416.331 89.1032V103.825C419.319 103.448 421.934 102.819 424.175 101.938C428.781 100.302 432.765 97.8485 436.126 94.5769C439.488 90.9279 441.978 86.7126 443.596 81.9312C445.464 77.0238 446.397 71.2357 446.397 64.5668V13.9823L431.084 13.9831ZM387.573 14.1715V65.5098C387.573 73.5631 389.565 79.7287 393.549 84.0069C395.915 86.3977 398.84 88.0963 402.326 89.103V104.014C400.21 103.762 397.596 103.133 394.483 102.127C389.752 100.365 385.83 97.8485 382.718 94.5771C379.232 91.3057 376.68 87.1532 375.061 82.1199C373.319 77.59 372.447 71.8017 372.447 64.7554V14.1709L387.573 14.1715ZM542.569 104.014L518.479 70.039C521.716 69.0324 524.579 67.8371 527.069 66.453C529.808 64.6915 532.049 62.7412 533.792 60.6021C535.784 58.2113 537.215 55.6319 538.087 52.8635C539.208 49.8436 539.768 46.4461 539.768 42.6712C539.768 38.2672 539.021 34.3036 537.527 30.7803C536.033 27.3828 533.854 24.4259 530.991 21.9093C528.252 19.5184 524.766 17.6309 520.533 16.2468C516.176 14.8628 511.569 14.1706 506.714 14.1706H467.123V28.5152H505.406C511.258 28.5152 515.802 29.7735 519.038 32.29C522.275 34.8065 523.894 38.5813 523.894 43.6147C523.894 48.2704 522.275 51.9194 519.038 54.5619C515.802 57.3303 511.32 58.7144 505.593 58.7144H467.123V104.013H482.623V72.6808H502.231L524.08 104.013L542.569 104.014Z" fill="white"/>
<path d="M632.016 104.202V14.3593L616.517 14.4021V59.3758H604.658V73.5316H616.517V104.202H632.016Z" fill="white"/>
<path d="M578.794 104.202H563.294V59.3758V14.5491L578.794 14.5063V59.3758H590.653V73.5316H578.794V104.202Z" fill="white"/>
<path d="M723.146 30.9686C724.64 34.492 725.387 38.4556 725.387 42.8595V104.202L709.513 104.202V72.8692H687.85H668.242V104.201H652.742V58.9027V44.5582H668.242V58.9027H691.212H709.513V43.803C709.513 38.7697 707.894 34.9949 704.657 32.4784C701.421 29.9619 696.877 28.7035 691.025 28.7035H652.742V14.359H692.333C697.188 14.359 701.795 15.0511 706.152 16.4352C710.385 17.8192 713.871 19.7068 716.61 22.0976C719.473 24.6143 721.652 27.5711 723.146 30.9686Z" fill="white"/>
<path d="M774.125 17.4098C779.976 15.1448 786.325 14.0127 793.172 14.0127H816.702V28.3573H793.172C788.566 28.3573 784.333 29.1122 780.473 30.6222C777.112 32.0063 773.875 34.1453 770.763 37.0394C768.82 39.1905 767.186 41.5501 765.861 44.1184H748.406C748.729 43.126 749.085 42.1504 749.474 41.1916C751.84 35.4033 755.076 30.622 759.185 26.8471C763.418 22.8205 768.398 19.6747 774.125 17.4098Z" fill="white"/>
<path d="M774.125 100.931C779.976 103.196 786.325 104.328 793.172 104.328H816.702V89.9832H793.172C788.566 89.9832 784.333 89.2282 780.473 87.7183C777.112 86.3342 773.875 84.1952 770.763 81.3011C768.148 78.4071 766.094 75.1357 764.6 71.4867C763.48 68.8442 762.795 65.3841 762.546 61.1057V58.4629H746.113L746.113 61.1077C746.362 66.895 747.482 72.242 749.474 77.1489C751.84 82.9372 755.076 87.7185 759.185 91.4934C763.418 95.52 768.398 98.6658 774.125 100.931Z" fill="white"/>
<path d="M837.139 104.327V59.0281L837.139 44.6835H852.639V59.0281L861.544 59.0281L894.096 14.4854L912.585 14.4843L880.074 58.4757L890.368 72.9945L912.585 104.328L894.096 104.327L872.247 72.9945H852.639V104.327H837.139Z" fill="white"/>
<path d="M852.639 28.8288H837.139L837.139 14.4843H852.639V28.8288Z" fill="white"/>
<path d="M961.034 17.8829C966.885 15.618 973.234 14.4859 980.082 14.4859H1003.61V28.8304H980.081C975.475 28.8304 971.242 29.5854 967.383 31.0954C964.021 32.4794 960.784 34.6185 957.672 37.5125C955.058 40.4066 953.003 43.678 951.509 47.327C950.389 49.9695 949.704 53.4296 949.455 57.7079V63.3704H933.022V57.7079C933.271 51.9199 934.391 46.5722 936.383 41.6648C938.749 35.8765 941.985 31.0951 946.094 27.3202C950.327 23.2936 955.307 20.1479 961.034 17.8829Z" fill="white"/>
<path d="M987.179 60.5389L987.178 56.953H1003.61V60.5391C1003.61 66.5789 1002.49 72.1153 1000.25 77.1486C998.134 82.3075 994.898 87.0889 990.54 91.4929C986.307 95.5195 981.327 98.6653 975.6 100.93C969.749 103.195 963.4 104.328 956.553 104.328H933.023V89.9832H956.553C961.159 89.9832 965.392 89.2282 969.251 87.7182C972.986 86.2083 976.223 84.0692 978.962 81.3008C981.452 78.7842 983.506 75.5756 985.124 71.6748C986.369 68.2773 987.116 64.5653 987.365 60.5389H987.179Z" fill="white"/>
</svg>
