<svg width="310" height="36" viewBox="0 0 310 36" fill="none" xmlns="http://www.w3.org/2000/svg">
<path d="M70.5742 4.96223C68.4632 4.96223 66.5056 5.31126 64.7016 6.00955C62.936 6.70784 61.4007 7.67769 60.0956 8.91912C58.829 10.0829 57.8311 11.557 57.1018 13.3416C56.4877 14.8546 56.1422 16.5033 56.0654 18.2878V20.0336H61.1319V18.2878C61.2087 16.9688 61.4198 15.902 61.7653 15.0873C62.2258 13.9623 62.8592 12.9537 63.6652 12.0615C64.6248 11.1692 65.6227 10.5097 66.659 10.083C67.8489 9.61748 69.154 9.38472 70.5741 9.38472H77.8285V4.96223H70.5742ZM72.7622 18.055L72.7623 19.1606H72.8198C72.7431 20.402 72.5128 21.5464 72.129 22.5939C71.63 23.7965 70.9966 24.7857 70.229 25.5616C69.3846 26.4151 68.3867 27.0746 67.2352 27.5401C66.0453 28.0057 64.7403 28.2384 63.3201 28.2384H56.0657V32.6609H63.3201C65.4311 32.6609 67.3887 32.3118 69.1927 31.6134C70.9583 30.9152 72.4936 29.9453 73.7987 28.7039C75.142 27.3461 76.1399 25.872 76.7924 24.2815C77.4833 22.7297 77.8288 21.0228 77.8288 19.1607V18.055H72.7622ZM106.328 10.4323C105.829 9.34606 105.138 8.3762 104.255 7.52277C103.334 6.70806 102.24 6.06802 100.973 5.60249C99.5917 5.17578 98.1332 4.96239 96.5979 4.96239H85.8318V9.32671H96.1955C97.9227 9.32671 99.3621 9.75342 100.514 10.6069C101.588 11.4216 102.126 12.663 102.126 14.3311C102.126 15.8441 101.607 17.0661 100.571 17.9972C99.458 18.8894 97.9995 19.3356 96.1956 19.3356H85.8319V32.6615H90.6105V23.7584H96.0225C97.4427 23.7584 98.882 23.5451 100.341 23.1183C101.684 22.6916 102.835 22.0903 103.795 21.3145C104.793 20.5387 105.58 19.5494 106.156 18.3467C106.731 17.1829 107.019 15.8252 107.019 14.2734C107.019 12.7992 106.789 11.5186 106.328 10.4323ZM132.639 4.90413V20.732C132.639 23.2924 132.025 25.1933 130.797 26.4347C130.144 27.1718 129.242 27.7149 128.091 28.0641V32.603C129.012 32.4866 129.818 32.2926 130.509 32.0211C131.929 31.5167 133.157 30.7603 134.194 29.7516C135.23 28.6266 135.998 27.327 136.497 25.8529C137.072 24.3399 137.36 22.5554 137.36 20.4993V4.90387L132.639 4.90413ZM119.224 4.96223V20.7901C119.224 23.2729 119.839 25.1739 121.067 26.4928C121.796 27.2299 122.698 27.7536 123.773 28.064V32.6611C123.12 32.5835 122.314 32.3895 121.355 32.0792C119.896 31.5361 118.687 30.7603 117.728 29.7517C116.653 28.7431 115.866 27.4628 115.367 25.911C114.83 24.5145 114.561 22.7299 114.561 20.5575V4.96203L119.224 4.96223ZM167.01 32.6611L159.583 22.1864C160.581 21.8761 161.464 21.5076 162.232 21.0809C163.076 20.5378 163.767 19.9365 164.304 19.277C164.919 18.5399 165.36 17.7447 165.629 16.8911C165.974 15.9601 166.147 14.9126 166.147 13.7488C166.147 12.391 165.917 11.1691 165.456 10.0828C164.995 9.03531 164.324 8.1237 163.441 7.3478C162.596 6.6107 161.522 6.02877 160.217 5.60205C158.873 5.17533 157.453 4.96194 155.956 4.96194H143.75V9.38444H155.553C157.357 9.38444 158.758 9.77239 159.756 10.5482C160.754 11.3241 161.253 12.4879 161.253 14.0397C161.253 15.4751 160.754 16.6001 159.756 17.4148C158.758 18.2683 157.376 18.695 155.611 18.695H143.75V32.6608H148.529V23.0009H154.574L161.31 32.6608L167.01 32.6611Z" fill="#DEEBFF"/>
<path d="M194.588 32.7192V5.02012L189.809 5.03332V18.8989H186.153V23.2632H189.809V32.7192H194.588Z" fill="#DEEBFF"/>
<path d="M178.179 32.7192H173.4V18.8989V5.07864L178.179 5.06544V18.8989H181.835V23.2632H178.179V32.7192Z" fill="#DEEBFF"/>
<path d="M222.683 10.1409C223.144 11.2271 223.374 12.4491 223.374 13.8069V32.7192L218.48 32.7192V23.059H211.801H205.756V32.7188H200.977V18.7531V14.3306H205.756V18.7531H212.838H218.48V14.0978C218.48 12.546 217.981 11.3822 216.983 10.6063C215.985 9.83046 214.584 9.4425 212.78 9.4425H200.977V5.02001H213.183C214.68 5.02001 216.101 5.2334 217.444 5.66011C218.749 6.08683 219.824 6.66877 220.668 7.40587C221.551 8.18177 222.223 9.09338 222.683 10.1409Z" fill="#DEEBFF"/>
<path d="M238.4 5.96059C240.204 5.2623 242.162 4.91327 244.273 4.91327H251.527V9.33576H244.273C242.853 9.33576 241.547 9.56852 240.358 10.0341C239.321 10.4608 238.323 11.1203 237.364 12.0125C236.765 12.6757 236.261 13.4032 235.853 14.195H230.471C230.571 13.889 230.68 13.5883 230.8 13.2927C231.53 11.5081 232.528 10.034 233.794 8.87016C235.099 7.62874 236.635 6.65888 238.4 5.96059Z" fill="#DEEBFF"/>
<path d="M238.4 31.7105C240.204 32.4088 242.162 32.7578 244.273 32.7578H251.527V28.3354H244.273C242.853 28.3354 241.547 28.1026 240.358 27.6371C239.321 27.2103 238.323 26.5509 237.364 25.6586C236.558 24.7664 235.924 23.7578 235.464 22.6328C235.118 21.8181 234.907 20.7513 234.831 19.4323V18.6175H229.764L229.764 19.4329C229.841 21.2171 230.186 22.8656 230.8 24.3785C231.53 26.163 232.528 27.6371 233.794 28.801C235.099 30.0424 236.635 31.0122 238.4 31.7105Z" fill="#DEEBFF"/>
<path d="M257.828 32.7575V18.7917L257.828 14.3692H262.607V18.7917L265.352 18.7917L275.388 5.059L281.088 5.05865L271.065 18.6214L274.239 23.0976L281.088 32.7578L275.388 32.7575L268.652 23.0976H262.607V32.7575H257.828Z" fill="#DEEBFF"/>
<path d="M262.607 9.48114H257.828L257.828 5.05865H262.607V9.48114Z" fill="#DEEBFF"/>
<path d="M296.025 6.10647C297.829 5.40818 299.787 5.05915 301.898 5.05915H309.152V9.48164H301.898C300.478 9.48164 299.173 9.7144 297.983 10.1799C296.946 10.6066 295.948 11.2661 294.989 12.1584C294.183 13.0506 293.549 14.0592 293.089 15.1842C292.743 15.9989 292.532 17.0657 292.456 18.3847V20.1305H287.389V18.3847C287.466 16.6002 287.811 14.9515 288.425 13.4385C289.155 11.654 290.153 10.1799 291.419 9.01604C292.724 7.77461 294.26 6.80476 296.025 6.10647Z" fill="#DEEBFF"/>
<path d="M304.086 19.2575L304.086 18.152H309.152V19.2576C309.152 21.1197 308.807 22.8266 308.116 24.3784C307.464 25.9689 306.466 27.443 305.122 28.8008C303.817 30.0422 302.282 31.0121 300.516 31.7104C298.712 32.4087 296.755 32.7578 294.644 32.7578H287.389V28.3353H294.644C296.064 28.3353 297.369 28.1026 298.559 27.6371C299.71 27.1715 300.708 26.512 301.553 25.6585C302.32 24.8826 302.954 23.8934 303.453 22.6908C303.836 21.6433 304.067 20.4989 304.143 19.2575H304.086Z" fill="#DEEBFF"/>
<path d="M15.5989 9.55386C12.2747 15.2308 9.08896 20.9077 5.76474 26.5846C5.62623 26.4461 5.48772 26.3077 5.48772 26.1692C3.96412 23.6769 2.57902 21.1846 1.05542 18.5538C0.778402 18.1385 0.778402 17.7231 1.05542 17.3077C2.44051 14.9538 3.82561 12.6 5.07219 10.2462C5.34921 9.69232 5.76474 9.55386 6.45729 9.55386C9.22747 9.55386 11.9977 9.55386 14.7678 9.55386C15.0449 9.55386 15.1834 9.55386 15.5989 9.55386Z" fill="#DEEBFF"/>
<path d="M37.3452 9.41544C37.4837 9.69236 37.6222 9.83082 37.7608 9.96928C39.1459 12.4616 40.5309 14.8154 42.0545 17.3077C42.3316 17.8616 42.3316 18.2769 42.0545 18.6923C40.6695 21.0462 39.2844 23.4 38.0378 25.7539C37.7608 26.1692 37.4837 26.4462 37.0682 26.4462C34.1595 26.4462 31.1123 26.4462 28.2036 26.4462C28.0651 26.4462 28.0651 26.4462 27.7881 26.4462C30.6968 20.7693 34.021 15.0923 37.3452 9.41544Z" fill="#DEEBFF"/>
<path d="M17.2607 27.4154C23.7707 27.4154 30.2806 27.4154 36.7906 27.4154C36.375 28.2462 35.9595 28.9385 35.4055 29.7692C34.2974 31.5692 33.1893 33.5077 32.2198 35.3077C31.9427 35.7231 31.6657 35.8615 31.2502 35.8615C28.48 35.8615 25.5713 35.8615 22.8011 35.8615C22.3856 35.8615 21.9701 35.7231 21.8316 35.3077C20.4465 32.8154 18.9229 30.3231 17.5378 27.8308C17.3992 27.8308 17.3993 27.6923 17.2607 27.4154Z" fill="#DEEBFF"/>
<path d="M21.9707 6.10352e-05C22.2477 6.10352e-05 22.3862 6.10352e-05 22.6632 6.10352e-05C25.4334 6.10352e-05 28.2036 6.10352e-05 30.9738 6.10352e-05C31.5278 6.10352e-05 31.9434 0.276983 32.2204 0.692367C33.6055 3.04621 34.8521 5.40005 36.2372 7.75389C36.5142 8.16927 36.5142 8.58466 36.2372 9.00004C34.7136 11.6308 33.19 14.2616 31.8049 16.7539C31.8049 16.7539 31.8049 16.7539 31.6664 16.8923C28.4806 11.3539 25.2949 5.67697 21.9707 6.10352e-05Z" fill="#DEEBFF"/>
<path d="M6.31836 8.44619C6.45687 8.16927 6.45687 8.03081 6.59538 7.89235C7.98047 5.53851 9.36556 3.04621 10.7507 0.692367C11.0277 0.138522 11.4432 6.10352e-05 11.9972 6.10352e-05C14.6289 6.10352e-05 17.3991 6.10352e-05 20.0308 6.10352e-05C20.5848 6.10352e-05 21.0003 0.138522 21.2774 0.692367C22.801 3.32313 24.3246 5.81543 25.8482 8.58466C19.3382 8.44619 12.8283 8.44619 6.31836 8.44619Z" fill="#DEEBFF"/>
<path d="M21.0004 36.0001C20.5849 36.0001 20.3079 36.0001 19.8924 36.0001C17.1222 36.0001 14.4905 36.0001 11.7203 36.0001C11.3048 36.0001 10.8893 35.8616 10.7507 35.4462C9.36565 33.0924 7.98055 30.7385 6.59546 28.2462C6.31844 27.8308 6.31844 27.4155 6.59546 26.8616C7.98055 24.3693 9.36565 21.877 10.8893 19.3847C11.0278 19.2463 11.0278 19.1078 11.1663 18.8309C14.4905 24.6462 17.6762 30.1847 21.0004 36.0001Z" fill="#DEEBFF"/>
</svg>
