<svg width="28" height="29" viewBox="0 0 28 29" fill="none" xmlns="http://www.w3.org/2000/svg">
<g clip-path="url(#clip0_2733_3530)">
<path d="M19.9181 0.330078H15.1993V19.4025C15.1993 21.675 13.3844 23.5417 11.1258 23.5417C8.86722 23.5417 7.0523 21.675 7.0523 19.4025C7.0523 17.1707 8.82689 15.3445 11.0048 15.2634V10.475C6.20533 10.5561 2.3335 14.4924 2.3335 19.4025C2.3335 24.3533 6.286 28.3301 11.1662 28.3301C16.0462 28.3301 19.9987 24.3127 19.9987 19.4025V9.62281C21.7733 10.9214 23.9512 11.6924 26.2502 11.733V6.94457C22.701 6.82283 19.9181 3.90109 19.9181 0.330078Z" fill="#DEEBFF"/>
</g>
<defs>
<clipPath id="clip0_2733_3530">
<rect width="28" height="28" fill="white" transform="translate(0 0.330078)"/>
</clipPath>
</defs>
</svg>
