<svg width="20" height="21" viewBox="0 0 20 21" fill="none" xmlns="http://www.w3.org/2000/svg">
<path d="M18.314 13.1562C18.3755 13.2632 18.4154 13.3811 18.4314 13.5035C18.4474 13.6258 18.4391 13.7501 18.407 13.8692C18.3749 13.9883 18.3197 14.0999 18.2445 14.1977C18.1693 14.2955 18.0756 14.3775 17.9687 14.4391C17.8618 14.5006 17.7438 14.5405 17.6215 14.5565C17.4991 14.5724 17.3749 14.5642 17.2558 14.5321C17.1366 14.5 17.025 14.4448 16.9272 14.3696C16.8294 14.2944 16.7474 14.2007 16.6859 14.0938L15.3687 11.7891C14.6337 12.2514 13.8413 12.6155 13.0116 12.8719L13.4249 15.3438C13.4656 15.589 13.4072 15.8403 13.2626 16.0425C13.118 16.2446 12.899 16.3811 12.6538 16.4219C12.6022 16.431 12.55 16.4354 12.4976 16.4352C12.2762 16.4349 12.062 16.3564 11.893 16.2134C11.724 16.0704 11.611 15.8722 11.5741 15.6539L11.1718 13.2477C10.3914 13.3341 9.60379 13.3341 8.82336 13.2477L8.42492 15.6562C8.38798 15.8748 8.2748 16.0732 8.10546 16.2162C7.93612 16.3592 7.72158 16.4376 7.49992 16.4375C7.44755 16.4377 7.39526 16.4333 7.34367 16.4242C7.22224 16.4038 7.10603 16.3596 7.00167 16.2942C6.89732 16.2289 6.80686 16.1436 6.73547 16.0432C6.66409 15.9429 6.61316 15.8295 6.58562 15.7095C6.55807 15.5894 6.55444 15.4652 6.57492 15.3438L6.9882 12.8656C6.15859 12.6092 5.36616 12.2452 4.63117 11.7828L3.31399 14.0938C3.18967 14.3097 2.98467 14.4673 2.7441 14.5321C2.50352 14.5968 2.24708 14.5634 2.03117 14.4391C1.81527 14.3147 1.6576 14.1097 1.59284 13.8692C1.52808 13.6286 1.56154 13.3722 1.68586 13.1562L3.12492 10.6445C2.63718 10.2041 2.18499 9.72575 1.77258 9.21406C1.62699 9.01988 1.56237 8.7768 1.59233 8.53596C1.62229 8.29511 1.74448 8.07527 1.93321 7.92267C2.12193 7.77007 2.36248 7.69661 2.60426 7.71773C2.84604 7.73886 3.07021 7.85292 3.22961 8.03594C4.48274 9.5875 6.67492 11.4375 9.99992 11.4375C13.3249 11.4375 15.5171 9.5875 16.7702 8.03594C16.9271 7.84436 17.1533 7.7226 17.3996 7.69722C17.6458 7.67183 17.8922 7.7449 18.0847 7.90046C18.2773 8.05603 18.4006 8.28146 18.4276 8.52756C18.4546 8.77366 18.3831 9.02045 18.2288 9.21406C17.8159 9.72581 17.3632 10.2041 16.8749 10.6445L18.314 13.1562Z" fill="#666484"/>
</svg>
